<svg width="18" height="22" viewBox="0 0 18 22" fill="none" xmlns="http://www.w3.org/2000/svg">
<path d="M0.333496 18.5833V16.9583H2.6085V8.67079C2.6085 7.15413 3.05537 5.80447 3.94912 4.62183C4.84287 3.4392 6.021 2.6944 7.4835 2.38746V1.60204C7.4835 1.18676 7.63245 0.843709 7.93037 0.572876C8.22829 0.302043 8.58488 0.166626 9.00016 0.166626C9.41544 0.166626 9.77204 0.302043 10.07 0.572876C10.3679 0.843709 10.5168 1.18676 10.5168 1.60204V2.38746C11.9793 2.6944 13.162 3.4392 14.0647 4.62183C14.9675 5.80447 15.4189 7.15413 15.4189 8.67079V16.9583H17.6668V18.5833H0.333496ZM9.00016 21.8333C8.42238 21.8333 7.91683 21.6211 7.4835 21.1968C7.05016 20.7725 6.8335 20.2625 6.8335 19.6666H11.1668C11.1668 20.2625 10.9547 20.7725 10.5304 21.1968C10.1061 21.6211 9.596 21.8333 9.00016 21.8333Z" fill="#5A5A5A"/>
</svg>
