<svg width="122" height="30" viewBox="0 0 122 30" fill="none" xmlns="http://www.w3.org/2000/svg">
<rect x="0.5" y="0.5" width="121" height="29" rx="3.5" fill="white"/>
<path d="M27.7031 18.5234V19.7812H16.4102V18.5234H21.2773V16.5137H17.75V12.4668H24.8594V10.9355H17.7227V9.70508H26.3633V13.6699H19.2676V15.2695H26.6504V16.5137H22.7812V18.5234H27.7031ZM38.3398 10.0605V11.4551C38.3398 13.1094 38.3398 14.8184 37.8887 17.416L36.3438 17.2793C36.8223 14.8457 36.8223 13.0547 36.8223 11.4551V11.291H29.6992V10.0605H38.3398ZM39.7754 18.2773V19.5215H28.5098V18.2773H39.7754ZM50.9043 8.87109V17.7988H49.373V8.87109H50.9043ZM51.2461 19.7402V20.9707H42.7285V16.8965H44.2598V19.7402H51.2461ZM44.1641 9.67773C46.0371 9.67773 47.4863 10.9766 47.4863 12.7676C47.4863 14.5996 46.0371 15.8711 44.1641 15.8711C42.2773 15.8711 40.8281 14.5996 40.8281 12.7676C40.8281 10.9766 42.2773 9.67773 44.1641 9.67773ZM44.1641 11.0039C43.1113 11.0039 42.3047 11.7012 42.3184 12.7676C42.3047 13.8613 43.1113 14.5449 44.1641 14.5449C45.1895 14.5449 45.9961 13.8613 45.9961 12.7676C45.9961 11.7012 45.1895 11.0039 44.1641 11.0039ZM57.166 9.63672L53.9805 21.4902H52.4492L55.6484 9.63672H57.166ZM68.0215 8.85742V21.2168H66.5039V8.85742H68.0215ZM57.7812 17.7852C58.7656 17.7783 59.8799 17.7783 61.0488 17.7441V16.6094C59.6543 16.3906 58.752 15.5361 58.752 14.3672C58.752 12.9727 59.9824 12.043 61.7871 12.043C63.6055 12.043 64.8633 12.9727 64.8633 14.3672C64.8633 15.5293 63.9541 16.377 62.5664 16.5957V17.6895C63.6533 17.6416 64.7471 17.5527 65.7793 17.416L65.8887 18.5508C63.168 19.0156 60.2285 19.043 58 19.043L57.7812 17.7852ZM65.5605 10.2793V11.4824H58.041V10.2793H61.0488V8.89844H62.5664V10.2793H65.5605ZM61.7871 13.2051C60.8574 13.2188 60.1875 13.6426 60.2012 14.3672C60.1875 15.0781 60.8574 15.502 61.7871 15.4883C62.7578 15.502 63.4004 15.0781 63.4004 14.3672C63.4004 13.6426 62.7578 13.2188 61.7871 13.2051ZM80.1895 8.87109V18.2227H78.6582V17.1426H76.2383V16.0762H78.6582V8.87109H80.1895ZM80.4766 19.7402V20.9707H71.4121V17.3203H72.9297V19.7402H80.4766ZM69.7715 14.4219C72.0547 14.4082 75.1172 14.3809 77.7422 14.0527L77.8242 15.1465C76.8057 15.3174 75.7529 15.4336 74.707 15.502V17.8809H73.1895V15.584C72.0342 15.6318 70.9336 15.6387 69.9629 15.6387L69.7715 14.4219ZM73.8047 9.32227C75.6094 9.32227 76.8672 10.2109 76.8809 11.5098C76.8672 12.8359 75.6094 13.6836 73.8047 13.6836C71.9727 13.6836 70.7148 12.8359 70.7148 11.5098C70.7148 10.2109 71.9727 9.32227 73.8047 9.32227ZM73.8047 10.4434C72.8203 10.4434 72.1504 10.8398 72.1504 11.5098C72.1504 12.1797 72.8203 12.5762 73.8047 12.5762C74.748 12.5762 75.418 12.1797 75.4316 11.5098C75.418 10.8398 74.748 10.4434 73.8047 10.4434ZM91.6055 8.85742V13.6836H93.4375V14.9551H91.6055V21.1895H90.0879V8.85742H91.6055ZM88.3379 10.1426C88.3379 13.7793 86.834 16.9648 82.7188 18.9883L81.8574 17.8125C84.8652 16.3154 86.4922 14.21 86.8066 11.4004H82.5273V10.1426H88.3379ZM104.32 8.85742V15.4883H102.789V8.85742H104.32ZM97.6484 16.0625V17.334H102.803V16.0625H104.32V21.0664H96.1445V16.0625H97.6484ZM97.6484 19.8359H102.803V18.5234H97.6484V19.8359ZM97.5801 9.4043C99.4805 9.39062 100.902 10.5801 100.902 12.3027C100.902 13.9844 99.4805 15.1738 97.5801 15.1738C95.666 15.1738 94.2441 13.9844 94.2441 12.3027C94.2441 10.5801 95.666 9.39062 97.5801 9.4043ZM97.5801 10.6758C96.5 10.6758 95.7207 11.3047 95.7344 12.3027C95.7207 13.2871 96.5 13.916 97.5801 13.9297C98.6465 13.916 99.4121 13.2871 99.4121 12.3027C99.4121 11.3047 98.6465 10.6758 97.5801 10.6758Z" fill="#2DA96E"/>
<rect x="0.5" y="0.5" width="121" height="29" rx="3.5" stroke="#2DA96E"/>
</svg>
