<svg width="19" height="14" viewBox="0 0 19 14" fill="none" xmlns="http://www.w3.org/2000/svg">
<path d="M2.5 14C2.01875 14 1.60677 13.8286 1.26406 13.4859C0.921354 13.1432 0.75 12.7312 0.75 12.25V1.75C0.75 1.26875 0.921354 0.856771 1.26406 0.514062C1.60677 0.171354 2.01875 0 2.5 0H16.5C16.9812 0 17.3932 0.171354 17.7359 0.514062C18.0786 0.856771 18.25 1.26875 18.25 1.75V12.25C18.25 12.7312 18.0786 13.1432 17.7359 13.4859C17.3932 13.8286 16.9812 14 16.5 14H2.5ZM9.5 7.72187C9.57292 7.72187 9.64948 7.71094 9.72969 7.68906C9.80989 7.66719 9.88646 7.63438 9.95937 7.59062L16.15 3.71875C16.2667 3.64583 16.3542 3.55469 16.4125 3.44531C16.4708 3.33594 16.5 3.21563 16.5 3.08437C16.5 2.79271 16.376 2.57396 16.1281 2.42812C15.8802 2.28229 15.625 2.28958 15.3625 2.45L9.5 6.125L3.6375 2.45C3.375 2.28958 3.11979 2.28594 2.87187 2.43906C2.62396 2.59219 2.5 2.80729 2.5 3.08437C2.5 3.23021 2.52917 3.35781 2.5875 3.46719C2.64583 3.57656 2.73333 3.66042 2.85 3.71875L9.04062 7.59062C9.11354 7.63438 9.1901 7.66719 9.27031 7.68906C9.35052 7.71094 9.42708 7.72187 9.5 7.72187Z" fill="#464656"/>
</svg>
