<svg width="20" height="20" viewBox="0 0 20 20" fill="none" xmlns="http://www.w3.org/2000/svg">
<path d="M10 9.68005C8.65938 9.68005 7.5625 9.25349 6.70938 8.40037C5.85625 7.54724 5.42969 6.45037 5.42969 5.10974C5.42969 3.76912 5.85625 2.67224 6.70938 1.81912C7.5625 0.965991 8.65938 0.539429 10 0.539429C11.3406 0.539429 12.4375 0.965991 13.2906 1.81912C14.1438 2.67224 14.5703 3.76912 14.5703 5.10974C14.5703 6.45037 14.1438 7.54724 13.2906 8.40037C12.4375 9.25349 11.3406 9.68005 10 9.68005ZM0.25 19.4605V16.5965C0.25 15.8246 0.442969 15.1644 0.828906 14.616C1.21484 14.0676 1.7125 13.6511 2.32188 13.3668C3.68281 12.7574 4.98789 12.3004 6.23711 11.9957C7.48633 11.691 8.74063 11.5386 10 11.5386C11.2594 11.5386 12.5086 11.6961 13.7477 12.0109C14.9867 12.3258 16.2867 12.7777 17.6477 13.3668C18.2773 13.6511 18.7852 14.0676 19.1711 14.616C19.557 15.1644 19.75 15.8246 19.75 16.5965V19.4605H0.25Z" fill="#5A5A5A"/>
</svg>
