<svg width="636" height="226" viewBox="0 0 636 226" fill="none" xmlns="http://www.w3.org/2000/svg">
<path d="M64.5704 148.058C64.6496 148.551 64.7783 149.034 64.9544 149.501C65.5129 150.615 65.0731 151.029 63.9979 151.358C59.9907 152.599 56.0183 153.93 52.0249 155.213C46.0443 157.128 40.0636 159.041 34.0829 160.952C29.0982 162.55 24.1182 164.16 19.1428 165.781L1.53589 171.464L0 171.941V124.287C1.39627 123.789 2.73669 123.263 4.11899 122.808C8.61497 121.346 13.1133 119.895 17.6139 118.456L30.697 114.251L39.7727 111.294C42.2999 110.474 44.8062 109.577 47.3614 108.876C48.5343 108.554 49.6164 107.839 50.894 107.916C51.7806 109.934 52.3531 112.058 53.0582 114.132C54.7384 119.08 56.4092 124.027 58.0708 128.975C59.5997 133.516 61.0867 138.085 62.6436 142.598C63.18 144.454 63.8233 146.277 64.5704 148.058ZM18.2492 148.569C17.1424 148.597 16.0878 149.047 15.3004 149.829C14.513 150.61 14.0521 151.663 14.0115 152.774C14.0672 153.885 14.5376 154.935 15.3293 155.714C16.121 156.494 17.1759 156.945 18.2841 156.979C19.3951 156.974 20.4587 156.527 21.2409 155.735C22.0232 154.943 22.4601 153.872 22.4555 152.756C22.4509 151.641 22.0051 150.574 21.2163 149.788C20.4274 149.003 19.3602 148.564 18.2492 148.569ZM45.3787 140.16C44.8234 140.14 44.27 140.235 43.7529 140.44C43.2359 140.644 42.7663 140.953 42.3734 141.348C41.9805 141.742 41.6726 142.213 41.469 142.732C41.2654 143.251 41.1704 143.807 41.1899 144.364C41.1814 144.919 41.284 145.469 41.4915 145.983C41.699 146.497 42.0072 146.964 42.3979 147.357C42.7886 147.749 43.2537 148.058 43.7657 148.266C44.2778 148.475 44.8263 148.578 45.3787 148.569C46.4857 148.556 47.5438 148.109 48.3266 147.324C49.1094 146.538 49.5548 145.476 49.5675 144.364C49.5675 143.249 49.1262 142.18 48.3406 141.391C47.5551 140.603 46.4897 140.16 45.3787 140.16ZM27.688 148.471C27.6568 149.037 27.743 149.603 27.941 150.133C28.139 150.663 28.4445 151.147 28.8382 151.553C29.232 151.958 29.7054 152.278 30.2284 152.49C30.7514 152.703 31.3127 152.804 31.8768 152.788C32.9692 152.771 34.0132 152.333 34.7928 151.564C35.5724 150.796 36.0281 149.756 36.0656 148.66C36.0748 148.108 35.9756 147.559 35.7736 147.046C35.5716 146.532 35.2708 146.063 34.8883 145.666C34.5058 145.269 34.0491 144.952 33.5444 144.732C33.0396 144.512 32.4967 144.395 31.9466 144.385C31.3935 144.347 30.8386 144.425 30.3173 144.615C29.796 144.804 29.3197 145.1 28.919 145.485C28.5182 145.869 28.2017 146.333 27.9898 146.848C27.7778 147.362 27.675 147.915 27.688 148.471Z" fill="#2F2B2C"/>
<path d="M636 154.421C633.033 153.489 630.052 152.578 627.092 151.618C619.296 149.118 611.498 146.607 603.697 144.084C597.917 142.213 592.15 140.314 586.369 138.443C582.879 137.314 579.423 136.172 575.932 135.1C575.192 134.869 575.157 134.546 575.339 133.909C575.59 133.026 576.135 132.234 576.17 131.281C576.477 130.44 576.812 129.613 577.098 128.765C578.983 123.158 580.864 117.552 582.739 111.946C583.751 108.932 584.743 105.912 585.762 102.898C586.998 99.2822 588.254 95.6731 589.497 92.064C592.29 92.134 594.726 93.5427 597.358 94.2364C600.611 95.0984 603.76 96.3388 606.971 97.39C610.183 98.4412 613.352 99.3733 616.536 100.396C620.55 101.686 624.557 103.01 628.565 104.321L636 106.767V154.421ZM595.166 124.174C594.616 124.16 594.068 124.254 593.554 124.451C593.04 124.649 592.57 124.946 592.171 125.326C591.771 125.706 591.451 126.162 591.227 126.666C591.003 127.171 590.88 127.715 590.865 128.267C590.882 129.378 591.322 130.439 592.095 131.234C592.867 132.029 593.914 132.497 595.019 132.542C596.113 132.572 597.174 132.167 597.97 131.414C598.767 130.662 599.234 129.624 599.271 128.526C599.313 127.964 599.237 127.398 599.049 126.867C598.861 126.335 598.564 125.849 598.177 125.439C597.791 125.03 597.323 124.705 596.805 124.488C596.286 124.27 595.728 124.163 595.166 124.174ZM622.184 140.917C624.641 141.113 626.373 138.933 626.428 136.789C626.396 135.674 625.937 134.615 625.146 133.832C624.356 133.049 623.294 132.602 622.184 132.584C621.073 132.584 620.007 133.027 619.222 133.816C618.436 134.604 617.995 135.674 617.995 136.789C617.971 137.344 618.064 137.898 618.268 138.414C618.471 138.931 618.78 139.399 619.175 139.788C619.57 140.177 620.041 140.479 620.56 140.673C621.078 140.867 621.631 140.95 622.184 140.917ZM608.64 136.712C609.189 136.736 609.738 136.646 610.251 136.449C610.765 136.252 611.233 135.95 611.625 135.564C612.018 135.178 612.328 134.714 612.535 134.203C612.742 133.692 612.842 133.143 612.829 132.591C612.84 132.036 612.74 131.484 612.533 130.969C612.327 130.453 612.019 129.985 611.627 129.592C611.236 129.2 610.77 128.89 610.256 128.683C609.743 128.476 609.193 128.375 608.64 128.386C608.09 128.368 607.543 128.463 607.031 128.665C606.52 128.868 606.055 129.174 605.666 129.564C605.278 129.955 604.973 130.421 604.771 130.934C604.569 131.448 604.475 131.997 604.493 132.549C604.464 133.103 604.551 133.657 604.749 134.175C604.947 134.693 605.252 135.163 605.643 135.555C606.034 135.947 606.503 136.252 607.02 136.45C607.536 136.648 608.088 136.735 608.64 136.705V136.712Z" fill="#302B2C"/>
<path d="M50.9223 107.923C49.6447 107.846 48.5626 108.561 47.3897 108.883C44.8346 109.584 42.3283 110.481 39.801 111.301L30.7253 114.258L17.6422 118.463C13.1463 119.906 8.64795 121.357 4.14731 122.815C2.75104 123.27 1.40364 123.796 0.0283203 124.293V76.3869C5.41326 74.6583 10.7982 72.9273 16.1831 71.194L30.9906 66.3796C32.4846 65.889 33.9995 65.4475 35.4726 64.9009C36.3522 64.5715 36.6315 64.985 36.8689 65.6928C37.8183 68.6174 38.7934 71.5468 39.794 74.4808C41.1484 78.494 42.5028 82.5119 43.8572 86.5345C45.4629 91.3279 47.0546 96.1284 48.6673 100.922C49.4283 103.185 50.2242 105.435 51.0061 107.692L50.9223 107.923Z" fill="#515153"/>
<path d="M636 106.767L628.565 104.321C624.557 103.01 620.55 101.686 616.536 100.396C613.352 99.3732 610.148 98.4202 606.971 97.39C603.795 96.3598 600.611 95.0984 597.358 94.2364C594.726 93.5356 592.29 92.134 589.497 92.0639C589.497 91.9028 589.497 91.7416 589.497 91.5874C590.195 89.6252 590.935 87.677 591.591 85.7007C593.106 81.2436 594.579 76.7726 596.08 72.3085C597.747 67.3328 599.418 62.3595 601.093 57.3885C601.966 54.7886 602.894 52.2096 603.683 49.5886C603.976 48.6145 604.451 48.6566 605.177 48.8878C608.207 49.89 611.23 50.8991 614.253 51.8802C620.075 53.749 625.893 55.6178 631.706 57.4866L636 58.8672V106.767Z" fill="#515153"/>
<path d="M152.891 129.43C150.985 128.954 149.002 128.835 147.104 128.407C144.807 127.882 142.461 127.784 140.171 127.293C138.014 126.831 135.801 126.88 133.63 126.592C128.533 125.99 123.388 126.172 118.271 125.478C116.892 125.319 115.505 125.237 114.117 125.233C109.488 125.114 104.887 124.637 100.28 124.287C98.4297 124.153 96.5796 124.224 94.6946 124.055C93.1657 123.915 91.6228 123.67 90.1009 123.677C89.0058 123.798 87.9337 124.077 86.9174 124.504C83.2941 125.66 79.6708 126.838 76.0475 128.008C75.91 128.002 75.7785 127.95 75.6745 127.86C75.5706 127.769 75.5002 127.646 75.475 127.51C75.112 125.737 74.2323 124.132 73.7855 122.394C72.9757 119.276 71.6911 116.305 70.7836 113.221C69.9737 110.558 69.0173 107.916 68.0748 105.295C67.7467 104.37 67.7955 103.263 66.9927 102.492C66.5529 99.969 65.4917 97.6353 64.7168 95.2106C63.6696 91.9378 62.5246 88.6932 61.4216 85.4415C60.4582 82.5962 59.5296 79.744 58.5173 76.9128C58.214 75.7221 57.8363 74.5518 57.3864 73.4088C57.0443 72.708 57.8122 72.5888 58.2032 72.4417C59.2434 72.0492 60.2976 71.7409 61.3797 71.4325C63.893 70.6056 66.4202 69.8347 68.8846 68.8956C70.5951 68.2439 71.8098 66.7932 73.2759 65.721C76.3058 63.5275 79.2938 61.278 82.3516 59.0845C84.5298 57.5077 86.715 55.9239 88.9699 54.4452C92.8935 51.8663 96.8379 49.3224 101.236 47.5564C104.448 46.2669 107.519 44.613 110.64 43.1273C112.993 42.0131 115.311 40.8287 117.698 39.7775C120.372 38.6072 122.955 37.2056 125.58 35.9161L131.738 32.9377C134.363 31.6693 136.981 30.3798 139.599 29.1114C142.335 27.7869 145.086 26.4974 147.823 25.1589C150.559 23.8204 153.261 22.4398 155.991 21.1013C157.994 20.1202 160.012 19.1531 162.037 18.221C163.363 17.6043 164.592 16.7704 166.058 16.483C169.169 15.8748 172.381 16.0408 175.413 16.9666C177.361 17.5553 179.295 18.193 181.172 18.9709C181.961 19.2932 182.897 18.9709 183.609 19.5595C183.721 19.6647 183.811 19.8188 183.944 19.8679C186.311 20.7229 188.663 21.6339 191.065 22.3837C193.159 23.0425 195.198 23.7853 197.251 24.5282C200.315 25.6144 203.415 26.6306 206.466 27.7378C208.442 28.4807 210.466 29.0694 212.442 29.7912C215.13 30.7723 217.769 31.8936 220.484 32.8116C222.516 33.5124 224.499 34.3183 226.509 35.0752C229.057 36.0423 231.557 37.1776 234.098 38.1587C235.91 38.8443 237.433 40.1331 238.412 41.8098C240.507 45.3629 241.505 49.3224 242.706 53.2118C243.404 55.4473 244.102 57.6759 244.661 59.9605C245.059 61.6284 245.54 63.2963 246.015 64.9572C246.546 66.8003 247.069 68.6434 247.551 70.5005C247.914 71.9021 248.249 73.3037 248.542 74.7473C245.813 75.6093 242.957 75.6373 240.165 76.1489C236.87 76.7025 233.553 77.123 230.237 77.5505C228.75 77.7397 227.298 78.2513 225.769 78.013C225.497 77.0459 225.288 76.0578 224.945 75.1187C224.101 72.757 223.312 70.3813 222.704 67.9776C222.265 66.2326 221.804 64.4736 219.975 63.6256C216.728 62.2123 213.307 61.2435 209.803 60.7454C206.843 60.2338 203.855 59.9324 200.867 59.6591C197.879 59.3858 194.898 59.1265 191.882 59.8063C186.886 60.9123 182.411 63.6868 179.19 67.6763C176.903 70.4381 175.129 73.5905 173.954 76.9828C172.728 80.6048 171.995 84.3766 171.776 88.1956C171.489 91.9308 172.041 95.6311 172.509 99.3102C172.648 100.417 172.62 101.805 174.024 102.359C176.341 103.284 178.687 104.125 181.005 105.127C182.08 105.596 183.099 106.318 184.342 106.339C184.474 106.58 184.69 106.762 184.949 106.851C189.18 108.771 193.327 110.81 197.418 113.067C201.944 115.516 205.643 119.26 208.044 123.824C209.653 126.761 210.958 129.856 211.939 133.061C212.533 134.945 212.867 136.902 212.931 138.877C212.931 140.559 212.177 141.036 210.543 140.938C209.147 140.853 207.911 140.37 206.578 140.195C202.682 139.683 198.898 138.611 195.037 137.917C191.798 137.328 188.629 136.361 185.382 135.78C178.876 134.616 172.446 133.054 165.932 131.89C162.497 131.274 159.065 130.603 155.635 129.879C154.743 129.613 153.821 129.462 152.891 129.43Z" fill="#FBE7D6"/>
<path d="M458.43 119.136C458.332 126.76 458.367 134.392 458.081 142.01C457.906 146.67 457.878 151.33 457.732 156.026C457.676 157.693 457.571 159.361 457.578 161.029C457.578 161.828 457.278 161.975 456.545 161.975C451.358 161.975 446.164 161.821 440.977 161.709C437.954 161.646 434.924 161.709 431.901 161.611C427.098 161.471 422.294 161.366 417.491 161.373C416.996 161.373 416.486 161.19 415.997 161.24C414.734 161.352 415.006 160.735 415.348 160.02C417.024 156.516 419.055 153.229 420.87 149.81C422.385 146.943 423.663 143.951 423.663 140.664C423.68 136.438 422.349 132.317 419.865 128.905C416.869 124.72 412.369 121.868 407.317 120.953C402.265 120.037 397.056 121.13 392.791 123.999C389.232 126.373 386.519 129.825 385.049 133.852C383.569 137.721 383.813 141.561 385.14 145.458C386.613 149.753 389.077 153.517 391.22 157.455C391.423 157.827 391.584 158.219 391.758 158.612C392.694 160.714 392.694 160.763 390.32 160.714C383.185 160.623 376.05 160.672 368.929 160.378C362.695 160.111 356.46 160.09 350.233 160.006C349.388 160.006 349.032 159.775 349.081 158.885C349.402 152.942 349.165 146.971 349.395 141.036C349.521 137.924 349.549 134.819 349.591 131.708C349.647 126.802 350.052 121.897 349.989 116.991C349.989 115.933 349.835 115.772 348.788 116.22C345.604 117.58 342.728 119.479 339.712 121.126C335.942 123.179 332.033 125.036 327.683 124.861C320.849 124.588 315.571 121.238 311.905 115.435C309.848 112.119 308.848 108.251 309.036 104.349C309.13 100.563 310.324 96.8876 312.471 93.7738C313.931 91.592 315.81 89.7245 317.997 88.2805C320.185 86.8365 322.638 85.8451 325.212 85.3642C329.313 84.5518 333.569 85.251 337.199 87.3335C341.004 89.3798 344.795 91.4542 348.599 93.5145C348.876 93.6517 349.163 93.7666 349.458 93.8579C350.059 94.0681 350.282 93.8579 350.303 93.2132C350.394 89.9545 350.568 86.6958 350.624 83.402C350.764 75.5881 350.792 67.7672 351.001 59.9534C351.064 57.3464 351.169 54.7464 351.155 52.1465C351.155 51.2144 351.497 51.0602 352.32 51.0673C358.283 51.1 364.247 51.1911 370.214 51.3406C373.39 51.4177 376.567 51.5228 379.743 51.3406C384.204 51.6419 388.665 51.9152 393.14 51.8451C394.613 51.8451 394.704 51.719 394.006 50.3594C391.786 46.0075 389.007 41.9499 387.22 37.3807C386.906 35.9791 386.571 34.5775 386.285 33.1759C385.587 30.0013 386.348 26.9668 387.59 24.1076C388.712 21.4394 390.405 19.0516 392.549 17.1138C394.693 15.176 397.235 13.7356 399.996 12.8948C400.212 12.8248 400.45 12.7967 400.694 12.7477C400.75 12.7745 400.811 12.7886 400.873 12.789C400.934 12.7894 400.996 12.776 401.052 12.7499C401.108 12.7238 401.157 12.6855 401.197 12.6379C401.236 12.5902 401.265 12.5344 401.281 12.4744L402.111 12.3272C403.714 12.1031 405.334 12.0327 406.949 12.117C409.914 12.1709 412.818 12.9761 415.39 14.4576C416.786 15.2005 417.966 16.2447 419.299 17.0786C419.662 17.4711 419.998 17.8635 420.395 18.27C423.316 21.3987 425.153 25.3903 425.631 29.6509C426.162 34.3532 424.745 38.5791 422.42 42.5876C421.27 44.3607 420.259 46.2211 419.397 48.1519C418.601 48.9859 418.343 50.1142 417.819 51.0953C417.359 51.9643 417.589 52.3217 418.622 52.3357C423.104 52.3848 427.586 52.5319 432.075 52.6791C438.303 52.8823 444.537 52.8052 450.771 52.9874C453.403 53.0645 456.042 53.0645 458.674 53.0295C459.54 53.0295 459.819 53.3028 459.805 54.1718C459.763 56.8839 459.526 59.596 459.477 62.308C459.303 71.2852 459.247 80.2624 459.149 89.2467C458.074 89.6741 456.978 90.0526 455.938 90.5501C450.946 92.9609 445.829 95.1404 441.165 98.1888C439.231 99.4573 437.255 100.712 435.838 102.625C432.987 106.441 430.736 110.674 429.164 115.176C428.256 117.783 427.523 120.432 427.698 123.242C427.789 124.791 428.103 125.064 429.625 125.001C429.896 124.998 430.166 124.977 430.435 124.938C433.765 124.237 437.095 123.6 440.418 122.906C444.46 122.065 448.488 121.189 452.531 120.341C454.485 119.928 456.461 119.542 458.43 119.136Z" fill="#2DA96E"/>
<path d="M225.756 78.0059C227.285 78.2371 228.737 77.7326 230.224 77.5433C233.54 77.1159 236.856 76.6954 240.151 76.1417C242.944 75.6652 245.813 75.6372 248.529 74.7402C251.594 74.8313 254.547 73.8992 257.605 73.6609C259.636 73.5067 261.619 72.9601 263.665 72.855C265.591 72.7779 267.455 72.2313 269.368 72.0211C272.028 71.7197 274.709 71.4044 277.341 70.9138C279.638 70.4933 282.011 70.5354 284.252 69.8696C285.502 69.4982 286.794 69.7365 288.029 69.3931C288.546 69.2459 288.728 69.6664 288.811 70.1639C289.384 73.0723 289.684 76.0296 290.096 78.9589C290.543 82.1265 291.066 85.2661 291.387 88.4618C291.674 91.3 292.246 94.1032 292.637 96.9344C293.028 99.7656 293.335 102.45 293.698 105.204C293.943 106.949 294.271 108.708 294.578 110.432C294.773 111.567 294.627 111.63 293.461 111.42C291.112 110.897 288.817 110.156 286.605 109.205C284.678 108.462 282.738 107.678 280.776 107.103C277.648 106.206 274.444 105.82 271.142 106.774C266.81 107.948 262.98 110.512 260.237 114.076C258.401 116.42 257.158 119.176 256.613 122.107C255.669 126.583 256.316 131.249 258.442 135.296C260.301 138.788 263.142 141.654 266.611 143.537C270.24 145.584 274.423 146.419 278.556 145.92C280.308 145.717 281.99 144.68 283.652 143.881C287.701 141.933 290.885 138.814 294.382 136.116C295.304 135.415 296.302 134.812 297.252 134.14C297.678 133.838 297.775 133.936 297.95 134.434C298.299 135.639 298.124 136.894 298.355 138.12C298.864 140.839 299.151 143.6 299.646 146.327C299.828 147.287 299.807 148.247 299.96 149.2C300.386 151.786 300.617 154.407 301.043 156.979C301.468 159.551 301.873 162.249 302.201 164.87C302.62 168.205 303.367 171.492 303.514 174.863C303.504 175.017 303.504 175.172 303.514 175.326C303.619 175.921 304.303 176.552 303.835 177.064C303.367 177.575 302.439 177.393 301.741 177.519C299.206 177.961 296.637 178.164 294.103 178.535C290.263 179.096 286.424 179.572 282.598 180.196C280.315 180.575 277.962 180.518 275.77 181.128C273.676 181.71 271.581 181.465 269.487 182.004C266.834 182.705 264.062 182.558 261.417 183.287C260.537 183.532 260.544 183.847 260.942 184.471C262.031 186.253 263.256 187.947 264.607 189.538C266.825 191.986 268.771 194.669 270.408 197.541C271.376 199.197 272.123 200.973 272.629 202.825C273.278 205.347 273.206 208.002 272.419 210.485C272.056 211.62 271.826 212.783 271.358 213.897C270.256 216.542 268.562 218.897 266.408 220.779C263.753 223.145 260.532 224.78 257.06 225.524C254.805 226.044 252.473 226.139 250.184 225.804C247.482 225.413 244.89 224.463 242.572 223.016C240.254 221.568 238.26 219.654 236.717 217.394C234.295 214.057 233.066 209.998 233.226 205.873C233.316 203.983 233.744 202.124 234.489 200.386C234.859 199.538 235.083 198.634 235.362 197.772C236.333 194.745 237.687 191.843 238.441 188.739C238.511 188.437 238.441 188.038 238.608 187.835C239.495 186.468 238.455 186.622 237.701 186.692C235.261 186.899 232.835 187.243 230.433 187.723C229.26 187.975 228.046 187.723 226.873 188.073C224.506 188.774 221.986 188.606 219.605 189.243C218.286 189.594 216.91 189.369 215.598 189.72C212.889 190.421 210.055 190.337 207.318 190.974C205.608 191.374 203.827 191.339 202.054 191.605C200.539 191.829 199.045 192.18 197.509 192.306C196.713 192.362 196.246 192.215 196.113 191.227C195.806 188.311 195.415 185.403 194.989 182.502C194.766 180.897 194.535 179.292 194.207 177.708C193.984 176.601 194.068 175.48 193.865 174.365C193.362 171.562 193.013 168.759 192.553 165.956C192.462 165.409 192.518 164.87 192.427 164.337C191.896 161.422 191.652 158.471 191.198 155.556C190.885 153.936 190.675 152.297 190.57 150.65C190.57 150.251 190.5 149.838 190.102 149.655C189.704 149.473 189.565 149.859 189.313 150.02C186.102 152.038 183.491 154.841 180.342 156.944C178.441 158.164 176.451 159.237 174.387 160.153C170.896 161.8 167.322 161.492 163.859 160.686C159.785 159.7 156.164 157.355 153.59 154.035C151.49 151.472 150.09 148.405 149.527 145.135C149.048 142.522 149.048 139.843 149.527 137.23C150.14 134.438 151.282 131.79 152.892 129.43C153.817 129.463 154.734 129.614 155.621 129.879C159.047 130.598 162.479 131.269 165.919 131.89C172.432 133.053 178.862 134.616 185.369 135.78C188.615 136.361 191.785 137.328 195.024 137.917C198.885 138.618 202.703 139.683 206.564 140.195C207.898 140.37 209.161 140.853 210.53 140.937C212.163 141.036 212.931 140.559 212.917 138.877C212.854 136.902 212.52 134.945 211.926 133.06C210.95 129.857 209.649 126.762 208.044 123.824C205.642 119.247 201.935 115.492 197.398 113.039C193.328 110.782 189.16 108.743 184.929 106.823C184.67 106.734 184.453 106.552 184.322 106.311C184.21 105.127 183.854 103.984 183.756 102.807C183.736 101.878 183.626 100.954 183.428 100.046C182.73 97.5511 182.869 94.9161 182.248 92.3932C181.766 90.445 182.067 88.3987 181.375 86.4505C180.831 84.9297 181.327 84.4182 182.883 84.3481C183.731 84.3417 184.575 84.2311 185.397 84.0187C187.994 83.2058 190.716 83.2759 193.362 82.8414C196.008 82.4069 198.766 82.0565 201.468 81.6991C205.224 81.2015 208.987 80.7109 212.722 80.1083C213.867 79.926 215.032 80.0452 216.156 79.6738C217.706 79.1622 219.354 79.2182 220.946 78.973C222.537 78.7277 224.15 78.3282 225.756 78.0059Z" fill="#BDDCA5"/>
<path d="M458.429 119.136C456.461 119.535 454.492 119.921 452.53 120.334C448.488 121.182 444.46 122.058 440.418 122.899C437.094 123.6 433.764 124.259 430.434 124.931C430.166 124.97 429.896 124.991 429.624 124.994C428.103 125.057 427.788 124.784 427.698 123.235C427.523 120.432 428.256 117.776 429.164 115.169C430.736 110.667 432.987 106.435 435.838 102.618C437.234 100.705 439.231 99.4503 441.165 98.1819C445.828 95.1334 450.939 92.9539 455.937 90.5432C456.977 90.0456 458.073 89.6672 459.149 89.2397C461.292 88.3847 463.407 87.4246 465.592 86.7168C467.498 86.1001 467.938 84.7406 467.987 83.0236C467.98 82.7131 468.008 82.4027 468.071 82.0986C469.076 78.118 468.901 74.0394 468.58 70.0519C468.23 64.5148 466.475 59.1596 463.484 54.4942C461.043 50.6288 457.621 47.4846 453.57 45.3838C449.137 43.1693 444.369 43.2394 439.608 43.5337C437.122 43.6879 434.644 44.0663 432.166 44.4167C430.071 44.7181 427.977 45.1596 425.882 45.6641C423.644 46.2441 421.479 47.0813 419.432 48.159C420.294 46.2281 421.304 44.3677 422.455 42.5946C424.779 38.5861 426.197 34.3603 425.666 29.6579C425.187 25.3973 423.351 21.4057 420.43 18.277C420.067 17.8705 419.732 17.4781 419.334 17.0856C420.667 16.6021 422.008 16.1395 423.327 15.628C425.324 14.8501 427.397 14.2614 429.387 13.4905C432.18 12.4043 435.014 11.5003 437.821 10.4911C439.915 9.74127 442.009 9.08953 444.034 8.32567C446.059 7.5618 448.223 6.92407 450.317 6.12516C451.13 5.68465 452.003 5.36592 452.907 5.17909C454.136 5.08798 455.078 4.19096 456.286 4.09285C456.517 4.09285 456.579 3.75647 456.593 3.51119C460.859 2.81039 464.678 0.588866 468.992 0.112325C471.646 -0.244396 474.345 0.189374 476.756 1.35974C480.616 3.27993 484.512 5.14405 488.386 7.0362C490.739 8.18551 493.085 9.36284 495.438 10.5402L504.464 14.9342C507.648 16.4899 510.866 17.9546 514.008 19.5875C516.186 20.7228 518.483 21.6408 520.703 22.706C522.749 23.6801 524.752 24.7383 526.791 25.7335C528.096 26.3782 529.423 26.9879 530.749 27.6046C533.751 29.0062 536.732 30.4078 539.762 31.7743C545.508 34.3182 550.625 37.8993 555.763 41.4734C560.902 45.0474 565.977 48.8037 570.913 52.6861C571.634 53.195 572.459 53.5372 573.328 53.6883C576.505 54.389 579.43 55.8327 582.586 56.5545C583.13 56.6736 583.242 56.989 583.06 57.5006C582.027 60.4439 580.966 63.3873 579.975 66.3446C579.011 69.1969 578.097 72.0702 577.147 74.9224C576.1 78.055 575.13 81.2296 573.943 84.2991C573.584 85.1209 573.398 86.0086 573.398 86.906C572.56 87.8451 572.449 89.0995 572.044 90.2138C571.234 92.4563 570.648 94.79 569.838 97.0185C568.679 100.081 567.792 103.235 566.654 106.304C565.956 108.238 565.488 110.271 564.56 112.142C561.167 111.02 557.718 110.039 554.395 108.75C551.197 107.502 547.986 107.741 544.733 108.049C543.776 108.147 542.813 108.245 541.856 108.322C538.554 108.582 535.217 108.519 531.922 108.883C527.035 109.43 522.064 109.374 517.15 109.815C513.463 110.144 509.763 110.278 506.077 110.516C502.628 110.754 499.214 111.427 495.794 111.917C493.392 112.268 490.97 112.506 488.617 113.06C486.599 113.529 484.547 113.824 482.515 114.265C480.344 114.728 478.145 115.148 475.953 115.527C472.916 116.059 469.907 116.711 466.877 117.307C464.063 117.937 461.25 118.554 458.429 119.136Z" fill="#FBE7D6"/>
<path d="M263.657 72.8832C261.611 72.9673 259.629 73.5349 257.597 73.6891C254.56 73.9274 251.607 74.8594 248.521 74.7683C248.193 73.3667 247.893 71.9651 247.53 70.5215C247.048 68.6644 246.525 66.8213 245.994 64.9782C245.519 63.3173 245.038 61.6494 244.64 59.9815C244.088 57.6969 243.376 55.4684 242.685 53.2328C241.484 49.3434 240.472 45.3839 238.391 41.8309C237.412 40.1541 235.889 38.8653 234.077 38.1797C231.536 37.1776 229.036 36.0773 226.488 35.0962C224.478 34.3393 222.495 33.5194 220.463 32.8326C217.748 31.9216 215.109 30.7933 212.421 29.8122C210.445 29.1114 208.421 28.5017 206.445 27.7589C203.394 26.6236 200.294 25.6565 197.229 24.5492C195.177 23.8484 193.131 23.0635 191.044 22.4048C188.642 21.6549 186.29 20.7439 183.923 19.8889C183.79 19.8399 183.7 19.6857 183.588 19.5806C187.777 19.987 191.965 19.8819 196.154 20.4916C198.814 20.877 201.544 20.828 204.232 21.0452C207.304 21.2975 210.361 21.6689 213.433 21.9142C216.163 22.1315 218.886 22.4258 221.601 22.7061C225.55 23.0488 229.476 23.6245 233.358 24.4301C235.452 24.8996 236.904 26.4063 238.161 28.0672C241.4 32.4991 244.338 37.1441 246.957 41.971C249.122 45.8184 251.335 49.6377 253.471 53.4991C255.112 56.4775 256.655 59.512 258.253 62.5184C259.852 65.5248 261.451 68.5032 263.049 71.5026C263.346 71.9153 263.552 72.3855 263.657 72.8832Z" fill="#F6DFCC"/>
<path d="M67.0204 102.548C67.8233 103.291 67.7744 104.398 68.1026 105.351C69.045 107.972 70.0015 110.614 70.8113 113.277C71.7468 116.361 73.0035 119.332 73.8133 122.45C74.2601 124.188 75.1397 125.793 75.5028 127.566C75.528 127.702 75.5983 127.825 75.7023 127.916C75.8063 128.006 75.9378 128.058 76.0752 128.064C75.8867 129.739 76.8502 131.112 77.283 132.619C77.9811 135.058 78.8957 137.441 79.7265 139.851C79.7492 139.925 79.7678 140 79.7823 140.076C79.908 140.86 80.8365 141.771 80.3199 142.297C79.6846 142.942 78.5536 143.131 77.6111 143.432C74.2042 144.519 70.7973 145.57 67.3835 146.628C66.9087 146.775 66.4061 146.845 65.9314 146.992C65.331 147.175 64.7236 147.364 64.5351 148.086C63.7985 146.313 63.1645 144.5 62.6362 142.654C61.0793 138.12 59.5923 133.544 58.0634 129.031C56.4251 124.065 54.7566 119.108 53.0578 114.16C52.3596 112.058 51.7802 109.955 50.8936 107.944L50.9494 107.692C52.4434 107.755 53.7419 107.047 55.1382 106.612C56.2413 106.262 57.3722 105.912 58.4753 105.498C60.8839 104.664 63.3622 104.097 65.8266 103.396C66.0774 103.357 66.3157 103.26 66.5229 103.113C66.73 102.966 66.9003 102.772 67.0204 102.548Z" fill="#E5E6E7"/>
<path d="M564.56 112.128C565.475 110.257 565.956 108.224 566.654 106.29C567.792 103.221 568.679 100.067 569.838 97.0046C570.676 94.7761 571.234 92.4424 572.044 90.1999C572.449 89.0856 572.561 87.8312 573.398 86.8921C576.1 87.733 578.802 88.588 581.511 89.415C583.752 90.1158 586 90.7465 588.234 91.4333C588.647 91.535 589.072 91.5821 589.497 91.5734V92.05C588.255 95.6591 586.998 99.2682 585.762 102.884C584.743 105.898 583.752 108.918 582.739 111.932C580.878 117.538 578.997 123.144 577.099 128.751C576.812 129.599 576.477 130.426 576.17 131.267C575.332 131.214 574.51 131.015 573.741 130.678C571.416 129.872 569.042 129.213 566.689 128.505C564.644 127.889 562.591 127.272 560.539 126.683C559.841 126.487 559.841 126.137 560.071 125.555C561.363 122.296 562.34 118.94 563.457 115.625C563.855 114.489 564.274 113.34 564.56 112.128Z" fill="#E5E6E7"/>
<path d="M456.58 3.50417C456.58 3.74945 456.503 4.06481 456.273 4.08583C455.065 4.18395 454.122 5.08097 452.894 5.17207C451.986 5.35824 451.111 5.677 450.297 6.11814C448.202 6.92406 446.108 7.51974 444.013 8.31865C441.919 9.11756 439.866 9.72024 437.8 10.4841C435.007 11.4933 432.152 12.3973 429.367 13.4835C427.377 14.2544 425.303 14.8431 423.307 15.621C421.987 16.1325 420.647 16.5951 419.313 17.0786C417.98 16.2447 416.8 15.2005 415.404 14.4576C412.826 12.9811 409.917 12.1832 406.949 12.138C405.334 12.0537 403.714 12.1241 402.111 12.3482C402.86 11.126 403.88 10.0933 405.09 9.33008C406.301 8.5669 407.671 8.09372 409.093 7.94723C411.927 7.63187 414.741 7.24643 417.568 6.88201C420.053 6.58768 422.539 6.3424 425.031 6.08311C427.942 5.78176 430.847 5.42436 433.765 5.22813C435.922 5.08797 438.072 4.98285 440.222 4.70254C443.713 4.24702 447.204 4.36615 450.694 3.83355C452.638 3.50666 454.612 3.3962 456.58 3.50417Z" fill="#F6DFCC"/>
<path d="M387.227 37.3879C389.014 41.9641 391.793 46.0148 394.013 50.3667C394.711 51.7262 394.62 51.8314 393.147 51.8524C388.672 51.9225 384.211 51.6492 379.75 51.3478C379.799 50.3246 380.497 49.5888 380.937 48.7479C382.235 46.26 383.534 43.7722 384.909 41.3264C385.649 40.0019 386.187 38.5443 387.227 37.3879Z" fill="#F6DFCC"/>
<path d="M401.267 12.4956C401.251 12.5556 401.223 12.6114 401.183 12.6591C401.144 12.7067 401.094 12.7449 401.038 12.7711C400.982 12.7972 400.92 12.8105 400.858 12.8102C400.797 12.8098 400.736 12.7957 400.68 12.7689C400.69 12.7057 400.716 12.6461 400.754 12.5951C400.793 12.5441 400.843 12.5034 400.901 12.4764C400.959 12.4495 401.023 12.4371 401.086 12.4405C401.15 12.4438 401.212 12.4627 401.267 12.4956Z" fill="#F6DFCC"/>
<path d="M18.2494 148.569C19.3603 148.564 20.4276 149.003 21.2164 149.788C22.0053 150.574 22.451 151.641 22.4556 152.756C22.4603 153.872 22.0234 154.943 21.2411 155.735C20.4588 156.527 19.3952 156.974 18.2843 156.979C17.1761 156.945 16.1212 156.493 15.3295 155.714C14.5378 154.935 14.0673 153.885 14.0117 152.774C14.0522 151.663 14.5132 150.61 15.3006 149.829C16.088 149.047 17.1426 148.597 18.2494 148.569Z" fill="#2F2B2C"/>
<path d="M45.3788 140.159C46.4897 140.159 47.5552 140.602 48.3407 141.391C49.1263 142.18 49.5676 143.249 49.5676 144.364C49.5549 145.475 49.1095 146.538 48.3267 147.323C47.5439 148.109 46.4858 148.556 45.3788 148.569C44.8264 148.578 44.2779 148.475 43.7658 148.266C43.2538 148.058 42.7886 147.749 42.398 147.356C42.0073 146.964 41.6991 146.497 41.4916 145.983C41.2841 145.469 41.1815 144.919 41.19 144.364C41.1705 143.807 41.2655 143.251 41.4691 142.732C41.6727 142.213 41.9806 141.742 42.3735 141.347C42.7664 140.953 43.236 140.644 43.753 140.44C44.2701 140.235 44.8235 140.14 45.3788 140.159Z" fill="#2F2B2C"/>
<path d="M27.6877 148.471C27.6721 147.915 27.772 147.363 27.9809 146.848C28.1899 146.333 28.5034 145.868 28.9014 145.482C29.2994 145.095 29.7732 144.796 30.2927 144.604C30.8121 144.412 31.3658 144.33 31.9184 144.364C32.4685 144.373 33.0114 144.491 33.5162 144.711C34.0209 144.931 34.4775 145.248 34.86 145.645C35.2425 146.042 35.5434 146.511 35.7454 147.025C35.9474 147.538 36.0466 148.087 36.0374 148.639C35.9999 149.735 35.5442 150.775 34.7646 151.543C33.9849 152.311 32.941 152.75 31.8486 152.767C31.2887 152.779 30.7323 152.675 30.2141 152.462C29.6958 152.249 29.2269 151.931 28.8365 151.528C28.4461 151.125 28.1426 150.646 27.945 150.12C27.7473 149.594 27.6598 149.032 27.6877 148.471Z" fill="#2F2B2C"/>
<path d="M595.166 124.174C595.728 124.163 596.286 124.27 596.804 124.488C597.323 124.705 597.79 125.029 598.177 125.439C598.563 125.849 598.86 126.335 599.049 126.867C599.237 127.398 599.313 127.964 599.271 128.526C599.234 129.624 598.767 130.662 597.97 131.414C597.173 132.167 596.113 132.572 595.019 132.542C593.914 132.497 592.867 132.029 592.095 131.234C591.322 130.439 590.882 129.378 590.865 128.267C590.88 127.715 591.002 127.171 591.226 126.666C591.45 126.162 591.771 125.706 592.171 125.326C592.57 124.946 593.04 124.649 593.554 124.451C594.068 124.254 594.616 124.159 595.166 124.174Z" fill="#302B2C"/>
<path d="M622.184 140.916C621.631 140.95 621.078 140.867 620.56 140.673C620.041 140.479 619.569 140.177 619.175 139.788C618.78 139.399 618.471 138.931 618.267 138.414C618.064 137.897 617.971 137.344 617.995 136.789C617.995 135.674 618.436 134.604 619.222 133.816C620.007 133.027 621.073 132.584 622.184 132.584C623.294 132.602 624.355 133.048 625.146 133.832C625.937 134.615 626.396 135.674 626.428 136.789C626.393 138.933 624.641 141.113 622.184 140.916Z" fill="#302B2C"/>
<path d="M608.64 136.705C608.09 136.732 607.54 136.643 607.026 136.444C606.513 136.244 606.046 135.939 605.657 135.547C605.268 135.156 604.966 134.686 604.769 134.17C604.572 133.653 604.485 133.101 604.514 132.549C604.496 131.997 604.59 131.448 604.792 130.934C604.994 130.421 605.299 129.955 605.688 129.564C606.077 129.174 606.541 128.868 607.053 128.665C607.564 128.463 608.112 128.368 608.661 128.386C609.214 128.375 609.764 128.476 610.278 128.683C610.791 128.89 611.257 129.2 611.648 129.592C612.04 129.985 612.348 130.453 612.554 130.969C612.761 131.484 612.861 132.036 612.85 132.591C612.862 133.144 612.761 133.694 612.552 134.206C612.343 134.718 612.032 135.181 611.637 135.567C611.242 135.953 610.772 136.253 610.256 136.449C609.741 136.645 609.191 136.732 608.64 136.705Z" fill="#302B2C"/>
<path d="M225.756 78.0059C224.15 78.3283 222.544 78.7068 220.925 78.952C219.305 79.1973 217.685 79.1412 216.135 79.6528C215.011 80.0242 213.845 79.9051 212.701 80.0873C208.966 80.69 205.203 81.1806 201.447 81.6781C198.745 82.0355 196.015 82.3789 193.341 82.8204C190.667 83.2619 187.973 83.1848 185.376 83.9978C184.554 84.2102 183.71 84.3208 182.862 84.3271C181.305 84.3972 180.81 84.9088 181.354 86.4295C182.052 88.3777 181.745 90.4241 182.227 92.3723C182.848 94.8952 182.73 97.5302 183.407 100.025C183.605 100.933 183.714 101.857 183.735 102.786C183.833 103.984 184.189 105.127 184.3 106.29C183.051 106.29 182.038 105.547 180.963 105.078C178.673 104.076 176.328 103.235 173.982 102.31C172.586 101.756 172.586 100.368 172.467 99.2611C171.999 95.5819 171.448 91.8817 171.734 88.1465C171.953 84.3274 172.686 80.5557 173.912 76.9337C175.087 73.5414 176.861 70.389 179.148 67.6271C182.37 63.6377 186.844 60.8632 191.84 59.7572C194.856 59.0564 197.83 59.3367 200.825 59.61C203.82 59.8833 206.801 60.1847 209.761 60.6963C213.265 61.1944 216.687 62.1632 219.933 63.5765C221.79 64.4736 222.251 66.2115 222.705 67.9775C223.326 70.4023 224.101 72.778 224.946 75.1327C225.274 76.0507 225.497 77.0388 225.756 78.0059Z" fill="#FEFEFE"/>
<path d="M419.397 48.152C421.449 47.0733 423.619 46.2362 425.862 45.6572C427.957 45.1526 430.051 44.7111 432.145 44.4098C434.624 44.0594 437.102 43.709 439.587 43.5268C444.349 43.2324 449.117 43.1623 453.55 45.3769C457.601 47.4776 461.022 50.6218 463.464 54.4872C466.455 59.1527 468.209 64.5079 468.56 70.0449C468.881 74.0324 469.056 78.1111 468.05 82.0916C467.988 82.3958 467.959 82.7061 467.967 83.0167C467.918 84.7336 467.478 86.0932 465.572 86.7099C463.387 87.4107 461.271 88.3778 459.128 89.2327C459.226 80.2485 459.282 71.2713 459.456 62.2941C459.505 59.582 459.743 56.8699 459.784 54.1578C459.784 53.2889 459.519 53.0085 458.653 53.0155C456.021 53.0155 453.383 53.0155 450.751 52.9735C444.516 52.7913 438.282 52.8684 432.055 52.6652C427.566 52.518 423.084 52.3708 418.602 52.3218C417.568 52.3218 417.338 51.9503 417.799 51.0813C418.343 50.1142 418.602 48.986 419.397 48.152Z" fill="#FEFDFC"/>
</svg>
