<svg width="18" height="18" viewBox="0 0 18 18" fill="none" xmlns="http://www.w3.org/2000/svg">
<path d="M9.9 8.64V5.4C9.9 5.145 9.81375 4.93125 9.64125 4.75875C9.46875 4.58625 9.255 4.5 9 4.5C8.745 4.5 8.53125 4.58625 8.35875 4.75875C8.18625 4.93125 8.1 5.145 8.1 5.4V8.9775C8.1 9.0975 8.1225 9.21375 8.1675 9.32625C8.2125 9.43875 8.28 9.54 8.37 9.63L11.34 12.6C11.505 12.765 11.715 12.8475 11.97 12.8475C12.225 12.8475 12.435 12.765 12.6 12.6C12.765 12.435 12.8475 12.225 12.8475 11.97C12.8475 11.715 12.765 11.505 12.6 11.34L9.9 8.64ZM9 18C7.755 18 6.585 17.7638 5.49 17.2913C4.395 16.8188 3.4425 16.1775 2.6325 15.3675C1.8225 14.5575 1.18125 13.605 0.70875 12.51C0.23625 11.415 0 10.245 0 9C0 7.755 0.23625 6.585 0.70875 5.49C1.18125 4.395 1.8225 3.4425 2.6325 2.6325C3.4425 1.8225 4.395 1.18125 5.49 0.70875C6.585 0.23625 7.755 0 9 0C10.245 0 11.415 0.23625 12.51 0.70875C13.605 1.18125 14.5575 1.8225 15.3675 2.6325C16.1775 3.4425 16.8188 4.395 17.2913 5.49C17.7638 6.585 18 7.755 18 9C18 10.245 17.7638 11.415 17.2913 12.51C16.8188 13.605 16.1775 14.5575 15.3675 15.3675C14.5575 16.1775 13.605 16.8188 12.51 17.2913C11.415 17.7638 10.245 18 9 18Z" fill="#626273"/>
</svg>
