<svg width="18" height="18" viewBox="0 0 18 18" fill="none" xmlns="http://www.w3.org/2000/svg">
<path d="M7.31241 18C7.08741 18 6.89241 17.925 6.72741 17.775C6.56241 17.625 6.46491 17.4375 6.43491 17.2125L6.16491 15.12C5.96991 15.045 5.78616 14.955 5.61366 14.85C5.44116 14.745 5.27241 14.6325 5.10741 14.5125L3.14991 15.3225C2.93991 15.4125 2.72991 15.4238 2.51991 15.3563C2.30991 15.2888 2.14491 15.1575 2.02491 14.9625L0.359913 12.06C0.239913 11.865 0.202413 11.655 0.247413 11.43C0.292413 11.205 0.404913 11.025 0.584913 10.89L2.27241 9.6075C2.25741 9.5025 2.24991 9.40125 2.24991 9.30375V8.69625C2.24991 8.59875 2.25741 8.4975 2.27241 8.3925L0.584913 7.11C0.404913 6.975 0.292413 6.795 0.247413 6.57C0.202413 6.345 0.239913 6.135 0.359913 5.94L2.02491 3.0375C2.14491 2.8425 2.30991 2.71125 2.51991 2.64375C2.72991 2.57625 2.93991 2.5875 3.14991 2.6775L5.10741 3.4875C5.27241 3.3675 5.44491 3.255 5.62491 3.15C5.80491 3.045 5.98491 2.955 6.16491 2.88L6.43491 0.7875C6.46491 0.5625 6.56241 0.375 6.72741 0.225C6.89241 0.075 7.08741 0 7.31241 0H10.6874C10.9124 0 11.1074 0.075 11.2724 0.225C11.4374 0.375 11.5349 0.5625 11.5649 0.7875L11.8349 2.88C12.0299 2.955 12.2137 3.045 12.3862 3.15C12.5587 3.255 12.7274 3.3675 12.8924 3.4875L14.8499 2.6775C15.0599 2.5875 15.2699 2.57625 15.4799 2.64375C15.6899 2.71125 15.8549 2.8425 15.9749 3.0375L17.6399 5.94C17.7599 6.135 17.7974 6.345 17.7524 6.57C17.7074 6.795 17.5949 6.975 17.4149 7.11L15.7274 8.3925C15.7424 8.4975 15.7499 8.59875 15.7499 8.69625V9.30375C15.7499 9.40125 15.7349 9.5025 15.7049 9.6075L17.3924 10.89C17.5724 11.025 17.6849 11.205 17.7299 11.43C17.7749 11.655 17.7374 11.865 17.6174 12.06L15.9524 14.94C15.8324 15.135 15.6637 15.27 15.4462 15.345C15.2287 15.42 15.0149 15.4125 14.8049 15.3225L12.8924 14.5125C12.7274 14.6325 12.5549 14.745 12.3749 14.85C12.1949 14.955 12.0149 15.045 11.8349 15.12L11.5649 17.2125C11.5349 17.4375 11.4374 17.625 11.2724 17.775C11.1074 17.925 10.9124 18 10.6874 18H7.31241ZM9.04491 12.15C9.91491 12.15 10.6574 11.8425 11.2724 11.2275C11.8874 10.6125 12.1949 9.87 12.1949 9C12.1949 8.13 11.8874 7.3875 11.2724 6.7725C10.6574 6.1575 9.91491 5.85 9.04491 5.85C8.15991 5.85 7.41366 6.1575 6.80616 6.7725C6.19866 7.3875 5.89491 8.13 5.89491 9C5.89491 9.87 6.19866 10.6125 6.80616 11.2275C7.41366 11.8425 8.15991 12.15 9.04491 12.15Z" fill="#5A5A5A"/>
</svg>
