<svg width="18" height="18" viewBox="0 0 18 18" fill="none" xmlns="http://www.w3.org/2000/svg">
<path d="M9 15.0797L4.63747 17.8315C4.44474 17.9599 4.24326 18.0149 4.03302 17.9966C3.82278 17.9782 3.63881 17.9048 3.48113 17.7764C3.32345 17.648 3.20081 17.4875 3.11321 17.2949C3.02561 17.1022 3.00809 16.8867 3.06065 16.6482L4.21698 11.4474L0.353774 7.95261C0.178571 7.7875 0.0690701 7.59947 0.0252695 7.3885C-0.018531 7.17753 -0.00539084 6.97115 0.06469 6.76935C0.134771 6.56755 0.239892 6.40245 0.380054 6.27403C0.520216 6.14561 0.712938 6.06306 0.958221 6.02637L6.0566 5.55857L8.02763 0.660424C8.11523 0.440283 8.25101 0.275177 8.43497 0.165106C8.61893 0.0550354 8.80728 0 9 0C9.19272 0 9.38107 0.0550354 9.56503 0.165106C9.74899 0.275177 9.88477 0.440283 9.97237 0.660424L11.9434 5.55857L17.0418 6.02637C17.2871 6.06306 17.4798 6.14561 17.6199 6.27403C17.7601 6.40245 17.8652 6.56755 17.9353 6.76935C18.0054 6.97115 18.0185 7.17753 17.9747 7.3885C17.9309 7.59947 17.8214 7.7875 17.6462 7.95261L13.783 11.4474L14.9394 16.6482C14.9919 16.8867 14.9744 17.1022 14.8868 17.2949C14.7992 17.4875 14.6765 17.648 14.5189 17.7764C14.3612 17.9048 14.1772 17.9782 13.967 17.9966C13.7567 18.0149 13.5553 17.9599 13.3625 17.8315L9 15.0797Z" fill="#626273"/>
</svg>
